# xmcd
#
# Track frame offsets:
# 150
# 21574
# 50217
# 68674
# 91908
# 112796
# 135468
# 158314
# 186386
# 207745
# 227766
# 247439
#
# Disc length: 3694 seconds
#
# Revision: 0
# Processed by: cddbd v1.5.2PL0 Copyright (c) Steve Scherf et al.
# Submitted via: Axialis_AX_CDPlayer 2.6
#
DISCID=ab0e6c0c
DTITLE=Robert Hazard - Troubadour
DYEAR=1900
DGENRE=
TTITLE0=I Still Believe In You
TTITLE1=Bound
TTITLE2=Nobody But The Night
TTITLE3=Somebody Else's Dream
TTITLE4=She Loves Me Too
TTITLE5=A Whole Lot Of Water
TTITLE6=Blood On My Hands
TTITLE7=Troubadour
TTITLE8=Lucky Hat
TTITLE9=To Be With You
TTITLE10=Midnight Gal
TTITLE11=Ride To Town
EXTD=
EXTT0=
EXTT1=
EXTT2=
EXTT3=
EXTT4=
EXTT5=
EXTT6=
EXTT7=
EXTT8=
EXTT9=
EXTT10=
EXTT11=
PLAYORDER=
